# Blender v2.75 (sub 0) OBJ File: ''
# www.blender.org
mtllib cube1.mtl
o Cube.006
v 1.414213 0.548189 -2.949490
v 2.828427 -0.158918 -1.724745
v 1.414213 -0.866025 -0.500000
v 0.000000 -0.158918 -1.724745
v 1.414214 2.280239 -1.949489
v 0.000000 1.573132 -0.724745
v 1.414214 0.866025 0.500000
v 2.828427 1.573131 -0.724744
v -1.414214 -0.866025 -0.500000
v 0.000000 -1.573132 0.724745
v -1.414213 -2.280239 1.949489
v -2.828427 -1.573132 0.724745
v -1.414213 0.866025 0.500001
v -2.828427 0.158918 1.724745
v -1.414213 -0.548189 2.949490
v 0.000000 0.158918 1.724746
v 1.414213 -0.866025 -0.500000
v 2.828427 -1.573133 0.724744
v 1.414214 -2.280240 1.949489
v 0.000000 -1.573132 0.724745
v 1.414214 0.866025 0.500000
v 0.000000 0.158918 1.724745
v 1.414214 -0.548189 2.949490
v 2.828427 0.158918 1.724745
v -1.414214 0.548189 -2.949490
v 0.000000 -0.158918 -1.724745
v -1.414214 -0.866025 -0.500000
v -2.828427 -0.158918 -1.724745
v -1.414214 2.280240 -1.949489
v -2.828427 1.573133 -0.724744
v -1.414213 0.866025 0.500000
v 0.000000 1.573132 -0.724743
v 0.000000 1.573132 -0.724745
v 1.414214 0.866025 0.500000
v 0.000000 0.158918 1.724745
v -1.414213 0.866025 0.500000
v 0.000001 3.305183 0.275257
v -1.414213 2.598076 1.500001
v 0.000000 1.890969 2.724745
v 1.414214 2.598075 1.500001
v 0.000000 -1.890969 -2.724745
v 1.414213 -2.598076 -1.500001
v 0.000000 -3.305183 -0.275257
v -1.414214 -2.598076 -1.500000
v 0.000001 -0.158919 -1.724744
v -1.414214 -0.866025 -0.500000
v 0.000000 -1.573132 0.724745
v 1.414213 -0.866026 -0.499999
vt 0.416005 0.561190
vt 0.416005 0.394524
vt 0.582672 0.394524
vt 0.582672 0.561190
vt 0.553042 0.395132
vt 0.553042 0.561799
vt 0.386376 0.561799
vt 0.386376 0.395132
vt 0.565159 0.405926
vt 0.565159 0.572593
vt 0.398492 0.572593
vt 0.398492 0.405926
vt 0.403889 0.623704
vt 0.403889 0.457037
vt 0.570556 0.457037
vt 0.570556 0.623704
vt 0.333333 0.500000
vt 0.333333 0.333333
vt 0.500000 0.333333
vt 0.500000 0.500000
vt 0.600079 0.431481
vt 0.600079 0.598148
vt 0.433413 0.598148
vt 0.433413 0.431482
vt 0.404603 0.915291
vt 0.404603 0.748624
vt 0.571270 0.748624
vt 0.571270 0.915291
vt 0.605476 0.715635
vt 0.605476 0.882302
vt 0.438810 0.882302
vt 0.438810 0.715635
vt 0.666667 0.333333
vt 0.500000 0.166667
vt 0.666667 0.166667
vt 0.416720 0.949603
vt 0.416720 0.782936
vt 0.583386 0.782936
vt 0.583386 0.949603
vt 0.392487 0.912540
vt 0.392487 0.745873
vt 0.559153 0.745873
vt 0.559153 0.912540
vt 0.561190 0.745873
vt 0.561190 0.912540
vt 0.394524 0.912540
vt 0.394524 0.745873
vt 0.077989 0.601508
vt 0.077989 0.434841
vt 0.244656 0.434841
vt 0.244656 0.601508
vt 0.166667 0.333333
vt 0.166667 0.500000
vt 0.000000 0.500000
vt 0.000000 0.333334
vt 0.247407 0.428122
vt 0.247407 0.594788
vt 0.080741 0.594788
vt 0.080741 0.428122
vt 0.104259 0.572592
vt 0.104259 0.405926
vt 0.270926 0.405926
vt 0.270926 0.572592
vt 0.000000 0.666667
vt 0.166667 0.666667
vt 1.000000 0.000000
vt 1.000000 0.166667
vt 0.833333 0.166667
vt 0.833333 0.000000
vt 0.774180 0.896455
vt 0.774180 0.729788
vt 0.940847 0.729788
vt 0.940847 0.896455
vt 0.912540 0.875582
vt 0.745873 0.875582
vt 0.745873 0.708916
vt 0.912540 0.708916
vt 0.971693 0.729789
vt 0.971693 0.896455
vt 0.805027 0.896455
vt 0.805027 0.729789
vt 0.833333 0.500000
vt 0.833333 0.333333
vt 1.000000 0.333333
vt 1.000000 0.500000
vt 0.799021 0.960291
vt 0.799021 0.793625
vt 0.965688 0.793625
vt 0.965688 0.960291
vt 0.793016 0.754630
vt 0.959683 0.754630
vt 0.959683 0.921296
vt 0.793016 0.921296
vt 0.166667 0.833333
vt 0.333333 0.666667
vt 0.333333 0.833333
vt 0.208413 0.760741
vt 0.208413 0.927407
vt 0.041746 0.927407
vt 0.041746 0.760741
vt 0.071270 0.931376
vt 0.071270 0.764709
vt 0.237936 0.764709
vt 0.237936 0.931376
vt 0.045106 0.926084
vt 0.045106 0.759418
vt 0.211772 0.759418
vt 0.211772 0.926084
vt 0.091429 0.898492
vt 0.091429 0.731826
vt 0.258095 0.731826
vt 0.258095 0.898492
vt 0.000000 0.833333
vt 0.166667 1.000000
vt 0.000000 1.000000
vt 0.723783 0.571878
vt 0.723783 0.405212
vt 0.890450 0.405212
vt 0.890450 0.571878
vt 0.333333 1.000000
vt 0.751270 0.571878
vt 0.751270 0.405212
vt 0.917937 0.405212
vt 0.917937 0.571878
vt 0.708307 0.522910
vt 0.708307 0.356243
vt 0.874974 0.356243
vt 0.874974 0.522910
vt 0.725106 0.612910
vt 0.725106 0.446243
vt 0.891773 0.446243
vt 0.891773 0.612910
vt 0.886376 0.419974
vt 0.886376 0.586640
vt 0.719709 0.586640
vt 0.719709 0.419974
vn 0.000000 -0.866000 -0.500000
vn 0.000000 0.866000 0.500000
vn 0.707100 0.353600 -0.612400
vn 0.707100 -0.353600 0.612400
vn -0.707100 -0.353600 0.612400
vn -0.707100 0.353600 -0.612400
usemtl Material.001
s 1
f 1/1/1 2/2/1 3/3/1 4/4/1
f 5/5/2 6/6/2 7/7/2 8/8/2
f 1/9/3 5/10/3 8/11/3 2/12/3
f 2/13/4 8/14/4 7/15/4 3/16/4
f 3/17/5 7/18/5 6/19/5 4/20/5
f 5/21/6 1/22/6 4/23/6 6/24/6
f 9/25/1 10/26/1 11/27/1 12/28/1
f 13/29/2 14/30/2 15/31/2 16/32/2
f 9/33/3 13/19/3 16/34/3 10/35/3
f 10/36/4 16/37/4 15/38/4 11/39/4
f 11/40/5 15/41/5 14/42/5 12/43/5
f 13/44/6 9/45/6 12/46/6 14/47/6
f 17/48/1 18/49/1 19/50/1 20/51/1
f 21/52/2 22/53/2 23/54/2 24/55/2
f 17/56/3 21/57/3 24/58/3 18/59/3
f 18/60/4 24/61/4 23/62/4 19/63/4
f 19/64/5 23/54/5 22/53/5 20/65/5
f 21/66/6 17/67/6 20/68/6 22/69/6
f 25/70/1 26/71/1 27/72/1 28/73/1
f 29/74/2 30/75/2 31/76/2 32/77/2
f 25/78/3 29/79/3 32/80/3 26/81/3
f 26/82/4 32/83/4 31/84/4 27/85/4
f 27/86/5 31/87/5 30/88/5 28/89/5
f 29/90/6 25/91/6 28/92/6 30/93/6
f 33/94/1 34/65/1 35/95/1 36/96/1
f 37/97/2 38/98/2 39/99/2 40/100/2
f 33/101/3 37/102/3 40/103/3 34/104/3
f 34/105/4 40/106/4 39/107/4 35/108/4
f 35/109/5 39/110/5 38/111/5 36/112/5
f 37/113/6 33/94/6 36/114/6 38/115/6
f 41/116/1 42/117/1 43/118/1 44/119/1
f 45/114/2 46/94/2 47/96/2 48/120/2
f 41/121/3 45/122/3 48/123/3 42/124/3
f 42/125/4 48/126/4 47/127/4 43/128/4
f 43/129/5 47/130/5 46/131/5 44/132/5
f 45/133/6 41/134/6 44/135/6 46/136/6
